<?xml version="1.0" encoding="iso-8859-1"?>
<!-- Generator: Adobe Illustrator 16.0.0, SVG Export Plug-In . SVG Version: 6.00 Build 0)  -->
<!DOCTYPE svg PUBLIC "-//W3C//DTD SVG 1.1//EN" "http://www.w3.org/Graphics/SVG/1.1/DTD/svg11.dtd">
<svg version="1.1" id="Capa_1" xmlns="http://www.w3.org/2000/svg" xmlns:xlink="http://www.w3.org/1999/xlink" x="0px" y="0px"
	 width="31.695px" height="31.695px" viewBox="0 0 31.695 31.695" style="enable-background:new 0 0 31.695 31.695;"
	 xml:space="preserve">
<g>
	<g>
		<polygon points="13.236,14.937 13.551,21.738 17.734,21.738 18.053,14.937 20.48,14.937 21.148,11.556 18.232,11.556 
			18.193,10.132 17.788,10.132 17.264,10.132 16.475,10.132 15.688,11.075 14.877,10.132 14.045,10.132 13.452,10.132 
			12.995,10.132 12.995,11.556 10.27,11.556 10.937,14.937 		"/>
		<circle cx="15.651" cy="7.68" r="2.132"/>
		<circle cx="23.535" cy="24.066" r="1.004"/>
		<path d="M28.145,25.07c0.556,0,1.004-0.449,1.004-1.004c0-0.559-0.448-1.006-1.004-1.006c-0.558,0-1.004,0.447-1.004,1.006
			C27.141,24.621,27.587,25.07,28.145,25.07z"/>
		<circle cx="18.432" cy="24.066" r="1.004"/>
		<circle cx="12.986" cy="24.066" r="1.004"/>
		<circle cx="7.731" cy="23.971" r="1.003"/>
		<path d="M2.5,24.975c0.557,0,1.006-0.449,1.006-1.004S3.057,22.968,2.5,22.968c-0.553,0-1.001,0.448-1.001,1.003
			S1.947,24.975,2.5,24.975z"/>
		<circle cx="23.534" cy="27.207" r="1.446"/>
		<polygon points="24.092,28.869 23.561,29.509 23.008,28.869 21.732,29.111 21.732,31.652 25.337,31.652 25.279,29.131 		"/>
		<circle cx="18.295" cy="27.206" r="1.445"/>
		<polygon points="18.854,28.869 18.32,29.509 17.77,28.869 16.494,29.131 16.494,31.652 20.1,31.652 20.025,29.131 		"/>
		<circle cx="20.843" cy="25.189" r="1.058"/>
		<path d="M22.159,28.379c-0.188-0.354-0.318-0.74-0.318-1.173c0-0.283,0.074-0.546,0.162-0.8h-0.104h-0.258h-0.392l-0.39,0.468
			l-0.402-0.468h-0.413h-0.231c0.106,0.246,0.168,0.515,0.168,0.8c0,0.466-0.164,0.892-0.432,1.237h2.61V28.379z"/>
		<circle cx="12.986" cy="27.207" r="1.446"/>
		<polygon points="13.543,28.869 13.012,29.509 12.46,28.869 11.184,29.131 11.184,31.652 14.789,31.652 14.716,29.131 		"/>
		<circle cx="15.531" cy="25.189" r="1.058"/>
		<path d="M16.85,28.379c-0.188-0.354-0.32-0.74-0.32-1.173c0-0.283,0.077-0.546,0.164-0.8h-0.104H16.33h-0.392l-0.39,0.468
			l-0.402-0.468h-0.414h-0.23c0.106,0.246,0.168,0.515,0.168,0.8c0,0.466-0.162,0.892-0.432,1.237h2.612V28.379L16.85,28.379z"/>
		<circle cx="28.835" cy="27.14" r="1.446"/>
		<polygon points="29.393,28.805 28.859,29.441 28.309,28.805 27.033,29.092 27.033,31.589 30.639,31.589 30.564,29.072 		"/>
		<circle cx="26.068" cy="25.124" r="1.058"/>
		<path d="M27.389,28.312c-0.188-0.354-0.32-0.74-0.32-1.172c0-0.283,0.076-0.547,0.162-0.803h-0.103h-0.26h-0.392l-0.389,0.469
			l-0.404-0.469H25.27H25.04c0.106,0.248,0.168,0.52,0.168,0.803c0,0.463-0.162,0.891-0.431,1.237h2.611V28.312z"/>
		<circle cx="7.814" cy="27.248" r="1.446"/>
		<polygon points="8.373,28.909 7.838,29.548 7.287,28.909 6.012,29.131 6.012,31.695 9.616,31.695 9.542,29.131 		"/>
		<circle cx="10.358" cy="25.23" r="1.057"/>
		<path d="M11.677,28.484l-0.001-0.063c-0.188-0.356-0.318-0.743-0.318-1.172c0-0.285,0.076-0.549,0.162-0.804h-0.104h-0.258h-0.391
			l-0.391,0.47l-0.402-0.47H9.561H9.329c0.105,0.248,0.167,0.519,0.167,0.803c0,0.464-0.162,0.888-0.432,1.236H11.677z"/>
		<circle cx="2.502" cy="27.248" r="1.446"/>
		<polygon points="3.062,28.909 2.528,29.548 1.977,28.909 0.666,29.131 0.7,31.695 4.307,31.695 4.231,29.131 		"/>
		<circle cx="5.049" cy="25.23" r="1.057"/>
		<path d="M6.105,26.445H5.847H5.456l-0.39,0.47l-0.402-0.47H4.25H4.02c0.106,0.248,0.168,0.519,0.168,0.803
			c0,0.464-0.164,0.888-0.432,1.236h2.611l-0.002-0.063c-0.188-0.356-0.318-0.743-0.318-1.172c0-0.285,0.076-0.549,0.164-0.804
			H6.105z"/>
		<path d="M20.98,7.716l-1.199,2.096L20.3,9.734c0.033-0.008,3.479-0.541,5.849-1.243c3.103-0.92,4.881-2.446,4.881-4.189
			C31.027,1.93,28.225,0,24.777,0c-3.446,0-6.252,1.93-6.252,4.301C18.525,5.644,19.438,6.905,20.98,7.716z M24.777,0.505
			c3.168,0,5.746,1.701,5.746,3.796c0,2.135-3.162,3.302-4.521,3.706c-1.788,0.528-4.211,0.965-5.261,1.142L21.688,7.5l-0.248-0.117
			c-1.508-0.717-2.41-1.868-2.41-3.081C19.029,2.206,21.607,0.505,24.777,0.505z"/>
	</g>
</g>
<g>
</g>
<g>
</g>
<g>
</g>
<g>
</g>
<g>
</g>
<g>
</g>
<g>
</g>
<g>
</g>
<g>
</g>
<g>
</g>
<g>
</g>
<g>
</g>
<g>
</g>
<g>
</g>
<g>
</g>
</svg>
