<svg id="Capa_1" enable-background="new 0 0 512 512" height="512" viewBox="0 0 512 512" width="512" xmlns="http://www.w3.org/2000/svg"><g><path d="m376 216h35.857l-2.929 2.929c-3.905 3.905-3.905 10.237 0 14.143 3.907 3.905 10.236 3.904 14.143 0l20-20c3.905-3.905 3.905-10.237 0-14.143l-20-20c-3.906-3.904-10.236-3.904-14.143 0-3.905 3.905-3.905 10.237 0 14.143l2.929 2.929h-35.857c-5.514 0-10-4.486-10-10 0-7.678-2.902-14.688-7.663-20 4.761-5.312 7.663-12.322 7.663-20 0-5.514 4.486-10 10-10h35.857l-2.929 2.929c-3.905 3.905-3.905 10.237 0 14.143 3.907 3.905 10.236 3.904 14.143 0l20-20c3.905-3.905 3.905-10.237 0-14.143l-20-20c-3.906-3.904-10.236-3.904-14.143 0-3.905 3.905-3.905 10.237 0 14.143l2.929 2.929h-35.857c-16.542 0-30 13.458-30 30 0 5.514-4.486 10-10 10-16.542 0-30 13.458-30 30v40c0 5.514-4.486 10-10 10s-10-4.486-10-10c0-16.542-13.458-30-30-30h-20c-5.522 0-10 4.478-10 10s4.478 10 10 10h20c5.514 0 10 4.486 10 10 0 16.542 13.458 30 30 30s30-13.458 30-30v-40c0-5.514 4.486-10 10-10s10 4.486 10 10c0 16.54 13.458 29.998 30 29.998z"/><path d="m130 76c0-22.056-17.944-40-40-40s-40 17.944-40 40 17.944 40 40 40 40-17.944 40-40zm-40 20c-11.028 0-20-8.972-20-20s8.972-20 20-20 20 8.972 20 20-8.972 20-20 20z"/><path d="m276 436h-60c-27.57 0-50 22.43-50 50 0 5.522 4.478 10 10 10h140c5.522 0 10-4.478 10-10 0-27.57-22.43-50-50-50zm-88.286 40c4.127-11.641 15.249-20 28.286-20h60c13.037 0 24.159 8.359 28.286 20z"/><path d="m286 396c0-22.056-17.944-40-40-40s-40 17.944-40 40 17.944 40 40 40 40-17.944 40-40zm-40 20c-11.028 0-20-8.972-20-20s8.972-20 20-20 20 8.972 20 20-8.972 20-20 20z"/><path d="m462 436h-60c-27.57 0-50 22.43-50 50 0 5.522 4.478 10 10 10h140c5.522 0 10-4.478 10-10 0-27.57-22.43-50-50-50zm-88.286 40c4.127-11.641 15.249-20 28.286-20h60c13.037 0 24.159 8.359 28.286 20z"/><path d="m472 396c0-22.056-17.944-40-40-40s-40 17.944-40 40 17.944 40 40 40 40-17.944 40-40zm-40 20c-11.028 0-20-8.972-20-20s8.972-20 20-20 20 8.972 20 20-8.972 20-20 20z"/><path d="m502 16h-332c-5.522 0-10 4.478-10 10v90h-110c-27.57 0-50 22.43-50 50v100c0 24.146 17.206 44.35 40 48.995v171.005c0 5.522 4.478 10 10 10h80c5.522 0 10-4.478 10-10v-310h20v150c0 5.522 4.478 10 10 10h121c5.522 0 10-4.478 10-10s-4.478-10-10-10h-111v-140h76c27.57 0 50-22.43 50-50 0-5.522-4.478-10-10-10h-116v-80h312v280h-111c-5.522 0-10 4.478-10 10s4.478 10 10 10h121c5.522 0 10-4.478 10-10v-300c0-5.522-4.478-10-10-10zm-246 140h-126c-5.522 0-10 4.478-10 10v310h-20v-170c0-5.522-4.478-10-10-10s-10 4.478-10 10v170h-20c0-11.365 0-275.562 0-290 0-5.522-4.478-10-10-10s-10 4.478-10 10v108.28c-11.639-4.128-20-15.243-20-28.28v-100c0-16.542 13.458-30 30-30.01h234.286c-4.127 11.651-15.249 20.01-28.286 20.01z"/><circle cx="336" cy="326" r="10"/></g></svg>